<svg width="70" height="70" viewBox="0 0 70 70" fill="none" xmlns="http://www.w3.org/2000/svg">
<path fill-rule="evenodd" clip-rule="evenodd" d="M35 70C54.33 70 70 54.33 70 35C70 15.67 54.33 0 35 0C15.67 0 0 15.67 0 35C0 54.33 15.67 70 35 70ZM10.5689 55.9291C10.5689 55.9291 10.8714 56.8226 11.7223 57.4342C12.5732 58.0458 13.383 58.4134 13.383 58.4134C13.383 58.4134 13.1831 58.1299 12.818 57.5421C12.6205 57.2241 12.6661 56.9512 12.7496 56.7676C12.7496 56.7676 13.3201 57.3996 13.9342 57.7719C14.5483 58.1443 16.6461 59.3105 19.2999 59.7876C21.5927 60.1999 23.3449 60.1828 24.2824 60.1736H24.2829H24.2835H24.2839C24.4308 60.1722 24.5577 60.1709 24.6634 60.1716C25.4439 60.1764 29.2224 59.8046 29.8487 59.7223C30.475 59.64 32.3816 59.4438 32.3816 59.4438C32.3816 59.4438 30.448 59.2534 29.7531 59.0411C29.0581 58.8287 28.727 58.5562 28.55 58.3708C28.4088 58.2229 28.3746 58.0397 28.3434 57.8719C28.3354 57.8294 28.3277 57.7879 28.3185 57.7482C28.3185 57.7482 28.983 58.2695 30.5158 58.5643C31.6638 58.7852 33.9733 58.7031 35.635 58.644L35.6355 58.644C36.1923 58.6242 36.6763 58.607 37.0195 58.6047C38.387 58.5953 41.067 58.4753 42.5429 58.3566C44.0188 58.238 46.0103 58.1701 46.0103 58.1701C46.0103 58.1701 43.366 57.5979 41.6398 57.284C41.1773 57.1999 40.7187 57.1231 40.293 57.0518C39.1302 56.857 38.213 56.7034 38.1324 56.5549C38.1324 56.5549 45.0357 57.1624 46.3822 57.3669C47.0555 57.4692 48.345 57.6741 49.6345 57.879L49.6376 57.8795L49.6401 57.8799L49.6422 57.8802C50.9291 58.0847 52.2148 58.289 52.8867 58.3911C53.5196 58.4872 54.2221 58.6061 54.8325 58.7094L54.8328 58.7094C55.5209 58.8259 56.0918 58.9225 56.3138 58.9443C56.7328 58.9856 58.3207 59.3818 58.3207 59.3818C58.3207 59.3818 57.2453 58.0763 56.4401 57.6612C56.3032 57.5906 56.1664 57.5186 56.0288 57.4462L56.0288 57.4462C55.3575 57.093 54.6682 56.7303 53.8566 56.4712C52.8786 56.159 52.08 56.0084 50.9937 55.8055C49.9073 55.6026 48.3927 55.4535 46.9654 55.409C45.5381 55.3645 43.6732 55.4688 43.6732 55.4688C43.6732 55.4688 45.7437 54.9288 47.5325 54.937C49.3213 54.9451 50.6496 55.0039 50.6496 55.0039C50.6496 55.0039 48.7235 54.4064 47.6143 54.1053C46.5051 53.8042 44.0284 53.5124 43.0294 53.4141C42.8554 53.3969 42.6837 53.3771 42.5047 53.3565C41.656 53.2585 40.6449 53.1419 38.4621 53.2044C38.1711 53.2128 37.907 53.2198 37.6634 53.2262C35.6953 53.2785 35.0685 53.2952 32.3951 53.6869C29.3908 54.1271 26.0135 55.0501 26.0135 55.0501L31.3872 53.3478C31.3872 53.3478 26.2599 53.5388 24.0446 53.8966C21.8293 54.2544 19.7383 54.6724 18.856 55.0414C18.0767 55.3673 17.2668 55.7463 17.0883 55.8304C17.9954 55.8894 18.7353 55.9063 19.225 55.9174C19.5095 55.9239 19.7096 55.9285 19.8089 55.9382C20.3245 55.989 24.8806 55.9816 26.0571 55.9294C27.2336 55.8773 30.3073 55.724 31.127 55.6607C31.9467 55.5975 34.8593 55.4283 34.8593 55.4283L37.9628 55.3019C37.9628 55.3019 33.7332 55.6293 32.8813 55.6894C32.2848 55.7315 30.5426 55.9078 29.2132 56.0423C28.6439 56.1 28.1503 56.1499 27.8548 56.1784C26.8693 56.2733 23.3281 56.5485 21.7625 56.5864C20.5758 56.6151 19.3944 56.5891 18.5242 56.57L18.5218 56.57L18.5194 56.5699C18.2436 56.5639 17.9991 56.5585 17.7958 56.5558C16.9509 56.5446 13.9838 56.2766 13.1805 56.1735C12.3772 56.0704 11.4496 55.9072 10.8467 55.7519L10.8144 55.7435L10.8143 55.7435L10.7305 55.7219L10.5689 55.9291ZM12.3969 55.2087C14.1298 55.572 15.7653 55.7435 17.0627 55.8288C17.1296 55.7154 17.5222 55.1108 18.5389 54.6263C19.6655 54.0894 20.0733 53.9136 20.0733 53.9136C20.0733 53.9136 17.5544 54.0495 15.8964 54.3662C15.2709 54.4856 14.833 54.586 14.4782 54.6673C13.8927 54.8015 13.5339 54.8837 12.932 54.9141C12.8139 54.9201 12.7155 54.9258 12.6309 54.9308C12.4395 54.942 12.3181 54.9491 12.197 54.9453C11.9868 54.9386 11.7775 54.899 11.205 54.7904L11.2046 54.7904C11.0588 54.7627 10.8895 54.7306 10.6906 54.6935C10.3053 54.6215 10.0427 54.5778 9.84401 54.5446L9.84383 54.5446L9.8437 54.5446C9.63474 54.5097 9.49637 54.4866 9.36001 54.4549C9.14223 54.4043 8.92958 54.3316 8.44276 54.1537C8.86286 54.3304 9.91424 54.6881 12.3969 55.2087ZM6.51221 53.1498L6.46138 53.1231C6.49253 53.1187 6.50088 53.1273 6.51221 53.1498ZM52.9618 12.7105C53.8127 13.3221 54.1152 14.2156 54.1152 14.2156L53.9536 14.4228L53.8697 14.4012L53.8374 14.3929C53.2345 14.2376 52.3069 14.0743 51.5036 13.9712C50.7003 13.8682 47.7332 13.6001 46.8883 13.5889C46.6839 13.5862 46.4379 13.5808 46.1602 13.5747L46.1599 13.5747C45.2897 13.5556 44.1083 13.5297 42.9216 13.5584C41.3561 13.5962 37.8148 13.8714 36.8293 13.9664C36.5338 13.9948 36.0402 14.0448 35.4709 14.1024C34.1415 14.2369 32.3993 14.4132 31.8028 14.4553C30.9509 14.5154 26.7213 14.8428 26.7213 14.8428L29.8248 14.7165C29.8248 14.7165 32.7374 14.5473 33.5571 14.484C34.3768 14.4207 37.4505 14.2674 38.627 14.2153C39.8035 14.1632 44.3596 14.1558 44.8752 14.2065C44.9745 14.2163 45.1746 14.2208 45.4591 14.2273C45.9488 14.2385 46.6888 14.2553 47.5959 14.3143C47.4173 14.3984 46.6074 14.7775 45.8281 15.1034C44.9458 15.4724 42.8548 15.8904 40.6395 16.2481C38.4242 16.6059 33.2969 16.797 33.2969 16.797L38.6706 15.0946C38.6706 15.0946 35.2934 16.0177 32.289 16.4579C29.6156 16.8496 28.9888 16.8662 27.0207 16.9185C26.7771 16.925 26.513 16.932 26.222 16.9403C24.0393 17.0029 23.0281 16.8862 22.1794 16.7883L22.1793 16.7883L22.1793 16.7883C22.0003 16.7676 21.8286 16.7478 21.6547 16.7307C20.6557 16.6324 18.179 16.3406 17.0698 16.0395C15.9606 15.7384 14.0345 15.1409 14.0345 15.1409C14.0345 15.1409 15.3628 15.1997 17.1516 15.2078C18.9404 15.2159 21.011 14.676 21.011 14.676C21.011 14.676 19.8861 14.9202 17.9702 14.8542C17.3965 14.8345 16.9897 14.8265 16.6719 14.8204H16.6719C15.9282 14.8059 15.6717 14.8009 14.9047 14.676C13.9515 14.5207 13.7867 14.522 13.3987 14.5249H13.3986H13.3986C13.341 14.5253 13.2785 14.5258 13.2077 14.5258L13.1066 14.5256C12.6548 14.5241 12.5714 14.5239 11.237 14.8542C10.3069 15.0845 9.84523 15.5783 9.60615 15.834C9.47821 15.9708 9.41401 16.0394 9.37585 15.9631C9.26636 15.7442 10.4707 14.3708 11.0181 13.9876C11.1463 13.8978 11.2656 13.7835 11.3962 13.6582L11.3962 13.6582C11.8232 13.2489 12.3719 12.7228 13.7551 12.5551C15.0646 12.3964 16.4892 12.439 17.6744 12.4745C18.1241 12.4879 18.5394 12.5004 18.9008 12.5004C20.2146 12.5004 26.5518 13.5899 26.5518 13.5899C26.4711 13.4414 25.554 13.2878 24.3911 13.093L24.3911 13.093L24.391 13.0929C23.9653 13.0216 23.5068 12.9448 23.0443 12.8607C21.3181 12.5469 18.6738 11.9747 18.6738 11.9747C18.6738 11.9747 20.6653 11.9068 22.1412 11.7881C23.6171 11.6695 26.2971 11.5494 27.6646 11.5401C28.0079 11.5377 28.4921 11.5205 29.0491 11.5007L29.0492 11.5007C30.7109 11.4417 33.0203 11.3596 34.1683 11.5804C35.7011 11.8753 36.3656 12.3965 36.3656 12.3965C36.3564 12.3569 36.3487 12.3155 36.3408 12.2731L36.3407 12.2729C36.3095 12.1051 36.2753 11.9218 36.1341 11.7739C35.9571 11.5885 35.626 11.316 34.9311 11.1037C34.2361 10.8913 32.3026 10.701 32.3026 10.701C32.3026 10.701 34.2091 10.5048 34.8354 10.4225C35.4618 10.3402 39.2403 9.96831 40.0207 9.97316C40.1267 9.97381 40.254 9.97257 40.4014 9.97113L40.4017 9.97113C41.3392 9.96198 43.0914 9.94488 45.3843 10.3571C48.038 10.8343 50.1358 12.0005 50.7499 12.3728C51.364 12.7452 51.9345 13.3772 51.9345 13.3772C52.018 13.1936 52.0636 12.9206 51.8661 12.6027C51.501 12.0149 51.3011 11.7313 51.3011 11.7313C51.3011 11.7313 52.1109 12.0989 52.9618 12.7105ZM47.6214 14.316C48.9188 14.4012 50.5543 14.5727 52.2872 14.9361C54.77 15.4567 55.8214 15.8144 56.2414 15.9911C55.7546 15.8132 55.5419 15.7405 55.3241 15.6898C55.1877 15.6581 55.0492 15.635 54.8401 15.6001L54.8401 15.6001C54.6414 15.567 54.3788 15.5232 53.9936 15.4513C53.7945 15.4141 53.625 15.3819 53.4791 15.3543C52.9066 15.2458 52.6973 15.2061 52.4871 15.1995C52.366 15.1956 52.2446 15.2027 52.0532 15.2139C51.9686 15.2189 51.8702 15.2247 51.7521 15.2306C51.1503 15.261 50.7914 15.3433 50.2059 15.4775C49.8512 15.5588 49.4133 15.6591 48.7878 15.7786C47.1297 16.0952 44.6108 16.2312 44.6108 16.2312C44.6108 16.2312 45.0186 16.0554 46.1452 15.5185C47.162 15.0339 47.5545 14.4293 47.6214 14.316ZM58.1719 16.995L58.2227 17.0216C58.1916 17.026 58.1832 17.0174 58.1719 16.995ZM18.3522 44.0301C19.2388 42.7652 20.3464 41.2158 21.376 39.8629C21.5681 39.6104 21.8124 39.3254 22.0999 39.014L26.1204 43.1945C25.8016 43.497 25.5762 43.7001 25.471 43.7758C24.9046 44.1837 22.5888 45.6383 20.9073 46.6869L18.3522 44.0301ZM26.9305 42.4107L22.884 38.2032C24.7881 36.3066 27.7377 33.7825 30.2821 31.6052L30.2823 31.605C32.2637 29.9095 33.9993 28.4243 34.8041 27.6094C36.9891 25.397 47.9762 16.9293 47.9762 16.9293C47.9762 16.9293 48.7826 16.0431 49.2356 15.9391C49.6885 15.8352 50.3493 16.6373 50.3427 16.9754C50.3362 17.3135 39.385 29.7279 37.8893 31.2772C36.6876 32.522 29.9909 39.4097 26.9305 42.4107ZM17.6951 44.973L17.6826 44.9911L17.669 44.977L17.4371 45.3107L16.7566 45.523C16.4163 45.6291 15.7358 45.8414 15.2828 45.9453C15.2212 45.9594 15.1659 45.9716 15.1157 45.9826L15.1151 45.9828L15.115 45.9828C14.7969 46.0528 14.6858 46.0772 14.4874 46.2681C14.2576 46.4891 14.1427 46.5996 13.9108 46.9333C13.6788 47.267 13.3254 48.0494 13.3254 48.0494L12.7159 50.4052L12.124 51.8593L11.7171 52.5403C11.5489 52.4482 11.3336 52.471 11.1881 52.611C11.0086 52.7836 11.0031 53.0691 11.1757 53.2485L11.1757 53.2486L11.1954 53.2296L11.1939 53.3069L14.2844 50.2279C14.1543 50.0273 14.0807 49.7869 14.0857 49.5299C14.099 48.8452 14.6648 48.3009 15.3494 48.3142C16.034 48.3276 16.5782 48.8934 16.5649 49.5781C16.5516 50.2628 15.9858 50.807 15.3012 50.7937C15.0441 50.7887 14.8069 50.7058 14.6115 50.568L11.4149 53.5367L11.555 53.5865L11.5261 53.6144L11.5262 53.6144C11.6992 53.7935 11.9846 53.7984 12.1637 53.6253C12.3255 53.4689 12.3451 53.2206 12.2195 53.0421L12.3274 52.9907C12.3274 52.9907 12.8975 52.6636 13.2377 52.5575C13.4079 52.5044 13.5498 52.4508 13.6918 52.3972C13.8337 52.3436 13.9757 52.29 14.1458 52.2369C14.486 52.1308 15.0515 52.0291 15.6171 51.9273L15.6172 51.9273L15.6174 51.9273C15.9568 51.8662 16.1745 51.8028 16.3921 51.7394C16.5373 51.6971 16.6824 51.6549 16.8636 51.6133C17.1435 51.549 17.2513 51.4815 17.4002 51.3881C17.4922 51.3303 17.6 51.2628 17.7739 51.18C17.9894 51.0774 18.1028 51.0234 18.1994 50.9478C18.3068 50.8638 18.3932 50.753 18.5758 50.5192L18.5758 50.5191C18.8697 50.1428 18.9162 50.0044 18.996 49.7667C19.0104 49.7238 19.0259 49.6776 19.0441 49.6263C19.1038 49.4583 19.1352 49.2898 19.1667 49.1213C19.1982 48.9528 19.2296 48.7843 19.2893 48.6164C19.4085 48.2804 19.6449 47.7213 19.6449 47.7213L19.9895 47.3898L19.9104 47.3075L19.9291 47.2958L17.6951 44.973Z" fill="white"/>
</svg>
